<?xml version="1.0" encoding="UTF-8" standalone="no"?><!DOCTYPE svg PUBLIC "-//W3C//DTD SVG 1.1//EN" "http://www.w3.org/Graphics/SVG/1.1/DTD/svg11.dtd"><svg width="100%" height="100%" viewBox="0 0 1479 993" version="1.1" xmlns="http://www.w3.org/2000/svg" xmlns:xlink="http://www.w3.org/1999/xlink" xml:space="preserve" xmlns:serif="http://www.serif.com/" style="fill-rule:evenodd;clip-rule:evenodd;stroke-linejoin:round;stroke-miterlimit:2;"><g id="Light-logo" serif:id="Light logo"><path d="M0,477.784l0,-477.784l141,0l101.137,58.391l-242.137,419.393Zm179.401,-477.784l35.552,0l45.672,26.369l-8.888,15.394l-72.336,-41.763Zm73.953,0l22.494,0l-5.624,9.74l-16.871,-9.74Zm44.665,0l20.526,0l-16.298,28.229l-15.394,-8.888l11.166,-19.341Zm42.697,0l652.247,0l0,427.014l-674.087,-389.185l21.841,-37.829Zm652.247,449.185l0,20.526l-692.576,-399.859l8.888,-15.394l683.688,394.727Zm0,42.697l0,501.082l-992.964,0l0,-402.825l290.788,-503.659l702.176,405.402Zm-992.964,59.856l0,-35.552l258.765,-448.194l15.394,8.888l-274.159,474.858Zm277.253,-515.769l15.394,8.888l-8.888,15.394l-15.394,-8.888l8.888,-15.394Z" style="fill:#002d8f;"/><g><g transform="matrix(361.741216,0,0,361.741216,959.657821,959.127927)"></g><text x="215.863px" y="959.128px" style="font-family:'Arial-BoldMT', 'Arial', sans-serif;font-weight:700;font-size:361.741px;fill:#fff;">NEX</text><g transform="matrix(361.741216,0,0,361.741216,1473.376154,959.127927)"></g><text x="1031.268px" y="959.128px" style="font-family:'ArialMT', 'Arial', sans-serif;font-size:361.741px;fill:#002d8f;">Air</text></g></g></svg>